<mxfile host="app.diagrams.net" modified="2023-04-02T19:20:34.870Z" agent="Mozilla/5.0 (Windows NT 6.3; Win64; x64) AppleWebKit/537.36 (KHTML, like Gecko) Chrome/109.0.0.0 Safari/537.36" version="21.1.2" etag="RedzxNK79YFiE4xFiGyA" type="github">
  <diagram name="PÃ¡gina-1" id="dJzIX_nHLC0SBLAla_d_">
    <mxGraphModel>
      <root>
        <mxCell id="0" />
        <mxCell id="1" parent="0" />
      </root>
    </mxGraphModel>
  </diagram>
</mxfile>
